<?xml version="1.0" encoding="UTF-8" standalone="no"?>
<!-- Created with Inkscape (http://www.inkscape.org/) -->

<svg
   xmlns:dc="http://purl.org/dc/elements/1.1/"
   xmlns:cc="http://creativecommons.org/ns#"
   xmlns:rdf="http://www.w3.org/1999/02/22-rdf-syntax-ns#"
   xmlns:svg="http://www.w3.org/2000/svg"
   xmlns="http://www.w3.org/2000/svg"
   version="1.1"
   width="265.74802"
   height="177.16534"
   id="svg3004"
   xml:space="preserve"><metadata
     id="metadata3010"><rdf:RDF><cc:Work
         rdf:about=""><dc:format>image/svg+xml</dc:format><dc:type
           rdf:resource="http://purl.org/dc/dcmitype/StillImage" /><dc:title></dc:title></cc:Work></rdf:RDF></metadata><defs
     id="defs3008" /><g
     transform="matrix(1.25,0,0,-1.25,0,177.16534)"
     id="g3012"><g
       id="g3014"><path
         d="m 151.133,33.814 0,77.485 28.164,0 0,-12.426 0.281,0 c 2.457,4.863 5.367,8.473 8.742,10.836 3.364,2.359 7.653,3.535 12.856,3.535 2.832,0 5.695,-0.41 8.586,-1.223 l 0,-26.144 c -3.563,1.402 -7.414,2.094 -11.555,2.094 -5.867,0 -10.293,-1.895 -13.281,-5.707 -2.985,-3.801 -4.473,-9.743 -4.473,-17.833 l 0,-30.617 -29.32,0"
         id="path3016"
         style="fill:#959394;fill-opacity:1;fill-rule:evenodd;stroke:none" /><path
         d="m 53.457,33.814 0,77.485 28.293,0 0,-10.18 0.297,0 c 1.828,2.785 4.039,5.109 6.644,6.969 2.598,1.847 5.411,3.176 8.446,3.972 3.035,0.786 6.379,1.184 10.039,1.184 4.332,0 8.445,-1.063 12.344,-3.176 3.906,-2.113 6.691,-5.054 8.378,-8.808 0.485,0.578 1.25,1.48 2.313,2.703 1.055,1.234 2.598,2.578 4.617,4.047 2.027,1.468 4.606,2.711 7.766,3.718 3.156,1.012 6.965,1.516 11.441,1.516 6.16,0 11.231,-1.262 15.203,-3.793 3.973,-2.52 6.824,-5.762 8.563,-9.707 1.722,-3.953 2.594,-8.188 2.594,-12.711 l 0,-53.219 -29.317,0 0,42.024 c 0,4.531 -0.601,7.972 -1.805,10.332 -1.203,2.359 -3.8,3.535 -7.8,3.535 -6.598,0 -9.895,-4.617 -9.895,-13.867 l 0,-42.024 -29.312,0 0,42.024 c 0,4.531 -0.606,7.972 -1.813,10.332 -1.203,2.359 -3.801,3.535 -7.789,3.535 -6.598,0 -9.898,-4.617 -9.898,-13.867 l 0,-42.024 -29.309,0"
         id="path3018"
         style="fill:#636060;fill-opacity:1;fill-rule:evenodd;stroke:none" /><path
         d="m 2.836,33.814 0,106.653 29.32,0 0,-37.473 0.282,0 c 2.843,3.367 6.113,5.918 9.82,7.652 3.707,1.735 8.43,2.598 14.156,2.598 4.719,0 9.078,-0.977 13.098,-2.922 4.019,-1.953 7.234,-4.898 9.64,-8.844 2.41,-3.953 3.614,-8.769 3.614,-14.445 l 0,-53.219 -29.309,0 0,40.657 c 0,5.195 -0.617,9.035 -1.852,11.519 -1.222,2.473 -3.808,3.715 -7.753,3.715 -3.137,0 -5.868,-1.102 -8.2,-3.289 -2.332,-2.188 -3.496,-6.074 -3.496,-11.66 l 0,-40.942 -29.32,0"
         id="path3020"
         style="fill:#353132;fill-opacity:1;fill-rule:evenodd;stroke:none" /><path
         d="m 208.391,5.533 c 0.746,0 1.351,-0.602 1.351,-1.348 0,-0.746 -0.605,-1.351 -1.351,-1.351 -0.743,0 -1.348,0.605 -1.348,1.351 0,0.746 0.605,1.348 1.348,1.348"
         id="path3022"
         style="fill:#231f20;fill-opacity:1;fill-rule:evenodd;stroke:none" /><path
         d="m 181.164,5.533 c 0.746,0 1.352,-0.602 1.352,-1.348 0,-0.746 -0.606,-1.351 -1.352,-1.351 -0.746,0 -1.348,0.605 -1.348,1.351 0,0.746 0.602,1.348 1.348,1.348"
         id="path3024"
         style="fill:#231f20;fill-opacity:1;fill-rule:evenodd;stroke:none" /><path
         d="m 153.938,5.533 c 0.746,0 1.351,-0.602 1.351,-1.348 0,-0.746 -0.605,-1.351 -1.351,-1.351 -0.747,0 -1.352,0.605 -1.352,1.351 0,0.746 0.605,1.348 1.352,1.348"
         id="path3026"
         style="fill:#231f20;fill-opacity:1;fill-rule:evenodd;stroke:none" /><path
         d="m 113.098,5.533 c 0.746,0 1.347,-0.602 1.347,-1.348 0,-0.746 -0.601,-1.351 -1.347,-1.351 -0.746,0 -1.352,0.605 -1.352,1.351 0,0.746 0.606,1.348 1.352,1.348"
         id="path3028"
         style="fill:#231f20;fill-opacity:1;fill-rule:evenodd;stroke:none" /><path
         d="m 92.676,5.533 c 0.746,0 1.347,-0.602 1.347,-1.348 0,-0.746 -0.601,-1.351 -1.347,-1.351 -0.746,0 -1.352,0.605 -1.352,1.351 0,0.746 0.606,1.348 1.352,1.348"
         id="path3030"
         style="fill:#231f20;fill-opacity:1;fill-rule:evenodd;stroke:none" /><path
         d="m 65.449,5.533 c 0.742,0 1.348,-0.602 1.348,-1.348 0,-0.746 -0.606,-1.351 -1.348,-1.351 -0.746,0 -1.351,0.605 -1.351,1.351 0,0.746 0.605,1.348 1.351,1.348"
         id="path3032"
         style="fill:#231f20;fill-opacity:1;fill-rule:evenodd;stroke:none" /><path
         d="m 51.832,5.533 c 0.746,0 1.352,-0.602 1.352,-1.348 0,-0.746 -0.606,-1.351 -1.352,-1.351 -0.746,0 -1.348,0.605 -1.348,1.351 0,0.746 0.602,1.348 1.348,1.348"
         id="path3034"
         style="fill:#231f20;fill-opacity:1;fill-rule:evenodd;stroke:none" /><path
         d="m 38.219,5.533 c 0.746,0 1.351,-0.602 1.351,-1.348 0,-0.746 -0.605,-1.351 -1.351,-1.351 -0.746,0 -1.348,0.605 -1.348,1.351 0,0.746 0.602,1.348 1.348,1.348"
         id="path3036"
         style="fill:#231f20;fill-opacity:1;fill-rule:evenodd;stroke:none" /><path
         d="m 31.41,5.533 c 0.746,0 1.352,-0.602 1.352,-1.348 0,-0.746 -0.606,-1.351 -1.352,-1.351 -0.746,0 -1.348,0.605 -1.348,1.351 0,0.746 0.602,1.348 1.348,1.348"
         id="path3038"
         style="fill:#231f20;fill-opacity:1;fill-rule:evenodd;stroke:none" /><path
         d="m 17.797,5.533 c 0.746,0 1.351,-0.602 1.351,-1.348 0,-0.746 -0.605,-1.351 -1.351,-1.351 -0.746,0 -1.348,0.605 -1.348,1.351 0,0.746 0.602,1.348 1.348,1.348"
         id="path3040"
         style="fill:#231f20;fill-opacity:1;fill-rule:evenodd;stroke:none" /><path
         d="m 4.184,5.533 c 0.746,0 1.351,-0.602 1.351,-1.348 0,-0.746 -0.605,-1.351 -1.351,-1.351 -0.746,0 -1.348,0.605 -1.348,1.351 0,0.746 0.602,1.348 1.348,1.348"
         id="path3042"
         style="fill:#231f20;fill-opacity:1;fill-rule:evenodd;stroke:none" /><path
         d="m 208.391,10.318 c 0.746,0 1.351,-0.601 1.351,-1.347 0,-0.747 -0.605,-1.352 -1.351,-1.352 -0.743,0 -1.348,0.605 -1.348,1.352 0,0.746 0.605,1.347 1.348,1.347"
         id="path3044"
         style="fill:#231f20;fill-opacity:1;fill-rule:evenodd;stroke:none" /><path
         d="m 174.359,10.318 c 0.746,0 1.352,-0.601 1.352,-1.347 0,-0.747 -0.606,-1.352 -1.352,-1.352 -0.746,0 -1.351,0.605 -1.351,1.352 0,0.746 0.605,1.347 1.351,1.347"
         id="path3046"
         style="fill:#231f20;fill-opacity:1;fill-rule:evenodd;stroke:none" /><path
         d="m 167.551,10.318 c 0.746,0 1.351,-0.601 1.351,-1.347 0,-0.747 -0.605,-1.352 -1.351,-1.352 -0.746,0 -1.348,0.605 -1.348,1.352 0,0.746 0.602,1.347 1.348,1.347"
         id="path3048"
         style="fill:#231f20;fill-opacity:1;fill-rule:evenodd;stroke:none" /><path
         d="m 153.938,10.318 c 0.746,0 1.351,-0.601 1.351,-1.347 0,-0.747 -0.605,-1.352 -1.351,-1.352 -0.747,0 -1.352,0.605 -1.352,1.352 0,0.746 0.605,1.347 1.352,1.347"
         id="path3050"
         style="fill:#231f20;fill-opacity:1;fill-rule:evenodd;stroke:none" /><path
         d="m 140.324,10.318 c 0.746,0 1.348,-0.601 1.348,-1.347 0,-0.747 -0.602,-1.352 -1.348,-1.352 -0.746,0 -1.351,0.605 -1.351,1.352 0,0.746 0.605,1.347 1.351,1.347"
         id="path3052"
         style="fill:#231f20;fill-opacity:1;fill-rule:evenodd;stroke:none" /><path
         d="m 126.711,10.318 c 0.746,0 1.348,-0.601 1.348,-1.347 0,-0.747 -0.602,-1.352 -1.348,-1.352 -0.746,0 -1.352,0.605 -1.352,1.352 0,0.746 0.606,1.347 1.352,1.347"
         id="path3054"
         style="fill:#231f20;fill-opacity:1;fill-rule:evenodd;stroke:none" /><path
         d="m 119.902,10.318 c 0.746,0 1.352,-0.601 1.352,-1.347 0,-0.747 -0.606,-1.352 -1.352,-1.352 -0.746,0 -1.347,0.605 -1.347,1.352 0,0.746 0.601,1.347 1.347,1.347"
         id="path3056"
         style="fill:#231f20;fill-opacity:1;fill-rule:evenodd;stroke:none" /><path
         d="m 113.098,10.318 c 0.746,0 1.347,-0.601 1.347,-1.347 0,-0.747 -0.601,-1.352 -1.347,-1.352 -0.746,0 -1.352,0.605 -1.352,1.352 0,0.746 0.606,1.347 1.352,1.347"
         id="path3058"
         style="fill:#231f20;fill-opacity:1;fill-rule:evenodd;stroke:none" /><path
         d="m 92.676,10.318 c 0.746,0 1.347,-0.601 1.347,-1.347 0,-0.747 -0.601,-1.352 -1.347,-1.352 -0.746,0 -1.352,0.605 -1.352,1.352 0,0.746 0.606,1.347 1.352,1.347"
         id="path3060"
         style="fill:#231f20;fill-opacity:1;fill-rule:evenodd;stroke:none" /><path
         d="m 85.867,10.318 c 0.746,0 1.352,-0.601 1.352,-1.347 0,-0.747 -0.606,-1.352 -1.352,-1.352 -0.746,0 -1.351,0.605 -1.351,1.352 0,0.746 0.605,1.347 1.351,1.347"
         id="path3062"
         style="fill:#231f20;fill-opacity:1;fill-rule:evenodd;stroke:none" /><path
         d="m 51.832,10.318 c 0.746,0 1.352,-0.601 1.352,-1.347 0,-0.747 -0.606,-1.352 -1.352,-1.352 -0.746,0 -1.348,0.605 -1.348,1.352 0,0.746 0.602,1.347 1.348,1.347"
         id="path3064"
         style="fill:#231f20;fill-opacity:1;fill-rule:evenodd;stroke:none" /><path
         d="m 45.027,10.318 c 0.746,0 1.348,-0.601 1.348,-1.347 0,-0.747 -0.602,-1.352 -1.348,-1.352 -0.746,0 -1.351,0.605 -1.351,1.352 0,0.746 0.605,1.347 1.351,1.347"
         id="path3066"
         style="fill:#231f20;fill-opacity:1;fill-rule:evenodd;stroke:none" /><path
         d="m 31.41,10.318 c 0.746,0 1.352,-0.601 1.352,-1.347 0,-0.747 -0.606,-1.352 -1.352,-1.352 -0.746,0 -1.348,0.605 -1.348,1.352 0,0.746 0.602,1.347 1.348,1.347"
         id="path3068"
         style="fill:#231f20;fill-opacity:1;fill-rule:evenodd;stroke:none" /><path
         d="m 24.605,10.318 c 0.747,0 1.352,-0.601 1.352,-1.347 0,-0.747 -0.605,-1.352 -1.352,-1.352 -0.746,0 -1.351,0.605 -1.351,1.352 0,0.746 0.605,1.347 1.351,1.347"
         id="path3070"
         style="fill:#231f20;fill-opacity:1;fill-rule:evenodd;stroke:none" /><path
         d="m 17.797,10.318 c 0.746,0 1.351,-0.601 1.351,-1.347 0,-0.747 -0.605,-1.352 -1.351,-1.352 -0.746,0 -1.348,0.605 -1.348,1.352 0,0.746 0.602,1.347 1.348,1.347"
         id="path3072"
         style="fill:#231f20;fill-opacity:1;fill-rule:evenodd;stroke:none" /><path
         d="m 4.184,10.318 c 0.746,0 1.351,-0.601 1.351,-1.347 0,-0.747 -0.605,-1.352 -1.351,-1.352 -0.746,0 -1.348,0.605 -1.348,1.352 0,0.746 0.602,1.347 1.348,1.347"
         id="path3074"
         style="fill:#231f20;fill-opacity:1;fill-rule:evenodd;stroke:none" /><path
         d="m 174.359,15.103 c 0.746,0 1.352,-0.601 1.352,-1.347 0,-0.746 -0.606,-1.352 -1.352,-1.352 -0.746,0 -1.351,0.606 -1.351,1.352 0,0.746 0.605,1.347 1.351,1.347"
         id="path3076"
         style="fill:#231f20;fill-opacity:1;fill-rule:evenodd;stroke:none" /><path
         d="m 160.746,15.103 c 0.746,0 1.348,-0.601 1.348,-1.347 0,-0.746 -0.602,-1.352 -1.348,-1.352 -0.746,0 -1.351,0.606 -1.351,1.352 0,0.746 0.605,1.347 1.351,1.347"
         id="path3078"
         style="fill:#231f20;fill-opacity:1;fill-rule:evenodd;stroke:none" /><path
         d="m 153.938,15.103 c 0.746,0 1.351,-0.601 1.351,-1.347 0,-0.746 -0.605,-1.352 -1.351,-1.352 -0.747,0 -1.352,0.606 -1.352,1.352 0,0.746 0.605,1.347 1.352,1.347"
         id="path3080"
         style="fill:#231f20;fill-opacity:1;fill-rule:evenodd;stroke:none" /><path
         d="m 147.129,15.103 c 0.746,0 1.351,-0.601 1.351,-1.347 0,-0.746 -0.605,-1.352 -1.351,-1.352 -0.742,0 -1.348,0.606 -1.348,1.352 0,0.746 0.606,1.347 1.348,1.347"
         id="path3082"
         style="fill:#231f20;fill-opacity:1;fill-rule:evenodd;stroke:none" /><path
         d="m 140.324,15.103 c 0.746,0 1.348,-0.601 1.348,-1.347 0,-0.746 -0.602,-1.352 -1.348,-1.352 -0.746,0 -1.351,0.606 -1.351,1.352 0,0.746 0.605,1.347 1.351,1.347"
         id="path3084"
         style="fill:#231f20;fill-opacity:1;fill-rule:evenodd;stroke:none" /><path
         d="m 133.52,15.103 c 0.742,0 1.347,-0.601 1.347,-1.347 0,-0.746 -0.605,-1.352 -1.347,-1.352 -0.75,0 -1.352,0.606 -1.352,1.352 0,0.746 0.602,1.347 1.352,1.347"
         id="path3086"
         style="fill:#231f20;fill-opacity:1;fill-rule:evenodd;stroke:none" /><path
         d="m 126.711,15.103 c 0.746,0 1.348,-0.601 1.348,-1.347 0,-0.746 -0.602,-1.352 -1.348,-1.352 -0.746,0 -1.352,0.606 -1.352,1.352 0,0.746 0.606,1.347 1.352,1.347"
         id="path3088"
         style="fill:#231f20;fill-opacity:1;fill-rule:evenodd;stroke:none" /><path
         d="m 119.902,15.103 c 0.746,0 1.352,-0.601 1.352,-1.347 0,-0.746 -0.606,-1.352 -1.352,-1.352 -0.746,0 -1.347,0.606 -1.347,1.352 0,0.746 0.601,1.347 1.347,1.347"
         id="path3090"
         style="fill:#231f20;fill-opacity:1;fill-rule:evenodd;stroke:none" /><path
         d="m 113.098,15.103 c 0.746,0 1.347,-0.601 1.347,-1.347 0,-0.746 -0.601,-1.352 -1.347,-1.352 -0.746,0 -1.352,0.606 -1.352,1.352 0,0.746 0.606,1.347 1.352,1.347"
         id="path3092"
         style="fill:#231f20;fill-opacity:1;fill-rule:evenodd;stroke:none" /><path
         d="m 106.289,15.103 c 0.742,0 1.352,-0.601 1.352,-1.347 0,-0.746 -0.61,-1.352 -1.352,-1.352 -0.746,0 -1.348,0.606 -1.348,1.352 0,0.746 0.602,1.347 1.348,1.347"
         id="path3094"
         style="fill:#231f20;fill-opacity:1;fill-rule:evenodd;stroke:none" /><path
         d="m 99.48,15.103 c 0.747,0 1.352,-0.601 1.352,-1.347 0,-0.746 -0.605,-1.352 -1.352,-1.352 -0.746,0 -1.347,0.606 -1.347,1.352 0,0.746 0.601,1.347 1.347,1.347"
         id="path3096"
         style="fill:#231f20;fill-opacity:1;fill-rule:evenodd;stroke:none" /><path
         d="m 79.062,15.103 c 0.747,0 1.348,-0.601 1.348,-1.347 0,-0.746 -0.601,-1.352 -1.348,-1.352 -0.746,0 -1.351,0.606 -1.351,1.352 0,0.746 0.605,1.347 1.351,1.347"
         id="path3098"
         style="fill:#231f20;fill-opacity:1;fill-rule:evenodd;stroke:none" /><path
         d="m 58.641,15.103 c 0.746,0 1.347,-0.601 1.347,-1.347 0,-0.746 -0.601,-1.352 -1.347,-1.352 -0.746,0 -1.352,0.606 -1.352,1.352 0,0.746 0.606,1.347 1.352,1.347"
         id="path3100"
         style="fill:#231f20;fill-opacity:1;fill-rule:evenodd;stroke:none" /><path
         d="m 31.41,15.103 c 0.746,0 1.352,-0.601 1.352,-1.347 0,-0.746 -0.606,-1.352 -1.352,-1.352 -0.746,0 -1.348,0.606 -1.348,1.352 0,0.746 0.602,1.347 1.348,1.347"
         id="path3102"
         style="fill:#231f20;fill-opacity:1;fill-rule:evenodd;stroke:none" /><path
         d="m 24.605,15.103 c 0.747,0 1.352,-0.601 1.352,-1.347 0,-0.746 -0.605,-1.352 -1.352,-1.352 -0.746,0 -1.351,0.606 -1.351,1.352 0,0.746 0.605,1.347 1.351,1.347"
         id="path3104"
         style="fill:#231f20;fill-opacity:1;fill-rule:evenodd;stroke:none" /><path
         d="m 10.992,15.103 c 0.746,0 1.348,-0.601 1.348,-1.347 0,-0.746 -0.602,-1.352 -1.348,-1.352 -0.746,0 -1.351,0.606 -1.351,1.352 0,0.746 0.605,1.347 1.351,1.347"
         id="path3106"
         style="fill:#231f20;fill-opacity:1;fill-rule:evenodd;stroke:none" /><path
         d="m 4.184,15.103 c 0.746,0 1.351,-0.601 1.351,-1.347 0,-0.746 -0.605,-1.352 -1.351,-1.352 -0.746,0 -1.348,0.606 -1.348,1.352 0,0.746 0.602,1.347 1.348,1.347"
         id="path3108"
         style="fill:#231f20;fill-opacity:1;fill-rule:evenodd;stroke:none" /><path
         d="m 208.391,18.908 c 0.476,0 0.863,-0.387 0.863,-0.859 0,-0.477 -0.387,-0.86 -0.863,-0.86 -0.473,0 -0.86,0.383 -0.86,0.86 0,0.472 0.387,0.859 0.86,0.859"
         id="path3110"
         style="fill:#231f20;fill-opacity:1;fill-rule:evenodd;stroke:none" /><path
         d="m 201.586,18.908 c 0.473,0 0.859,-0.387 0.859,-0.859 0,-0.477 -0.386,-0.86 -0.859,-0.86 -0.473,0 -0.859,0.383 -0.859,0.86 0,0.472 0.386,0.859 0.859,0.859"
         id="path3112"
         style="fill:#231f20;fill-opacity:1;fill-rule:evenodd;stroke:none" /><path
         d="m 194.777,18.908 c 0.477,0 0.86,-0.387 0.86,-0.859 0,-0.477 -0.383,-0.86 -0.86,-0.86 -0.472,0 -0.859,0.383 -0.859,0.86 0,0.472 0.387,0.859 0.859,0.859"
         id="path3114"
         style="fill:#231f20;fill-opacity:1;fill-rule:evenodd;stroke:none" /><path
         d="m 187.973,18.908 c 0.472,0 0.859,-0.387 0.859,-0.859 0,-0.477 -0.387,-0.86 -0.859,-0.86 -0.477,0 -0.86,0.383 -0.86,0.86 0,0.472 0.383,0.859 0.86,0.859"
         id="path3116"
         style="fill:#231f20;fill-opacity:1;fill-rule:evenodd;stroke:none" /><path
         d="m 181.164,18.908 c 0.473,0 0.859,-0.387 0.859,-0.859 0,-0.477 -0.386,-0.86 -0.859,-0.86 -0.473,0 -0.859,0.383 -0.859,0.86 0,0.472 0.386,0.859 0.859,0.859"
         id="path3118"
         style="fill:#231f20;fill-opacity:1;fill-rule:evenodd;stroke:none" /><path
         d="m 174.359,18.908 c 0.473,0 0.86,-0.387 0.86,-0.859 0,-0.477 -0.387,-0.86 -0.86,-0.86 -0.476,0 -0.859,0.383 -0.859,0.86 0,0.472 0.383,0.859 0.859,0.859"
         id="path3120"
         style="fill:#231f20;fill-opacity:1;fill-rule:evenodd;stroke:none" /><path
         d="m 167.551,18.908 c 0.476,0 0.859,-0.387 0.859,-0.859 0,-0.477 -0.383,-0.86 -0.859,-0.86 -0.473,0 -0.86,0.383 -0.86,0.86 0,0.472 0.387,0.859 0.86,0.859"
         id="path3122"
         style="fill:#231f20;fill-opacity:1;fill-rule:evenodd;stroke:none" /><path
         d="m 160.746,18.908 c 0.473,0 0.859,-0.387 0.859,-0.859 0,-0.477 -0.386,-0.86 -0.859,-0.86 -0.476,0 -0.859,0.383 -0.859,0.86 0,0.472 0.383,0.859 0.859,0.859"
         id="path3124"
         style="fill:#231f20;fill-opacity:1;fill-rule:evenodd;stroke:none" /><path
         d="m 153.938,18.908 c 0.472,0 0.859,-0.387 0.859,-0.859 0,-0.477 -0.387,-0.86 -0.859,-0.86 -0.477,0 -0.86,0.383 -0.86,0.86 0,0.472 0.383,0.859 0.86,0.859"
         id="path3126"
         style="fill:#231f20;fill-opacity:1;fill-rule:evenodd;stroke:none" /><path
         d="m 147.129,18.908 c 0.476,0 0.863,-0.387 0.863,-0.859 0,-0.477 -0.387,-0.86 -0.863,-0.86 -0.473,0 -0.856,0.383 -0.856,0.86 0,0.472 0.383,0.859 0.856,0.859"
         id="path3128"
         style="fill:#231f20;fill-opacity:1;fill-rule:evenodd;stroke:none" /><path
         d="m 140.324,18.908 c 0.473,0 0.86,-0.387 0.86,-0.859 0,-0.477 -0.387,-0.86 -0.86,-0.86 -0.476,0 -0.859,0.383 -0.859,0.86 0,0.472 0.383,0.859 0.859,0.859"
         id="path3130"
         style="fill:#231f20;fill-opacity:1;fill-rule:evenodd;stroke:none" /><path
         d="m 133.52,18.908 c 0.472,0 0.855,-0.387 0.855,-0.859 0,-0.477 -0.383,-0.86 -0.855,-0.86 -0.481,0 -0.864,0.383 -0.864,0.86 0,0.472 0.383,0.859 0.864,0.859"
         id="path3132"
         style="fill:#231f20;fill-opacity:1;fill-rule:evenodd;stroke:none" /><path
         d="m 126.711,18.908 c 0.473,0 0.859,-0.387 0.859,-0.859 0,-0.477 -0.386,-0.86 -0.859,-0.86 -0.477,0 -0.859,0.383 -0.859,0.86 0,0.472 0.382,0.859 0.859,0.859"
         id="path3134"
         style="fill:#231f20;fill-opacity:1;fill-rule:evenodd;stroke:none" /><path
         d="m 119.902,18.908 c 0.473,0 0.86,-0.387 0.86,-0.859 0,-0.477 -0.387,-0.86 -0.86,-0.86 -0.472,0 -0.859,0.383 -0.859,0.86 0,0.472 0.387,0.859 0.859,0.859"
         id="path3136"
         style="fill:#231f20;fill-opacity:1;fill-rule:evenodd;stroke:none" /><path
         d="m 113.098,18.908 c 0.472,0 0.855,-0.387 0.855,-0.859 0,-0.477 -0.383,-0.86 -0.855,-0.86 -0.477,0 -0.86,0.383 -0.86,0.86 0,0.472 0.383,0.859 0.86,0.859"
         id="path3138"
         style="fill:#231f20;fill-opacity:1;fill-rule:evenodd;stroke:none" /><path
         d="m 106.289,18.908 c 0.473,0 0.859,-0.387 0.859,-0.859 0,-0.477 -0.386,-0.86 -0.859,-0.86 -0.477,0 -0.859,0.383 -0.859,0.86 0,0.472 0.382,0.859 0.859,0.859"
         id="path3140"
         style="fill:#231f20;fill-opacity:1;fill-rule:evenodd;stroke:none" /><path
         d="m 99.48,18.908 c 0.473,0 0.86,-0.387 0.86,-0.859 0,-0.477 -0.387,-0.86 -0.86,-0.86 -0.472,0 -0.859,0.383 -0.859,0.86 0,0.472 0.387,0.859 0.859,0.859"
         id="path3142"
         style="fill:#231f20;fill-opacity:1;fill-rule:evenodd;stroke:none" /><path
         d="m 92.676,18.908 c 0.472,0 0.859,-0.387 0.859,-0.859 0,-0.477 -0.387,-0.86 -0.859,-0.86 -0.477,0 -0.86,0.383 -0.86,0.86 0,0.472 0.383,0.859 0.86,0.859"
         id="path3144"
         style="fill:#231f20;fill-opacity:1;fill-rule:evenodd;stroke:none" /><path
         d="m 85.867,18.908 c 0.477,0 0.86,-0.387 0.86,-0.859 0,-0.477 -0.383,-0.86 -0.86,-0.86 -0.472,0 -0.859,0.383 -0.859,0.86 0,0.472 0.387,0.859 0.859,0.859"
         id="path3146"
         style="fill:#231f20;fill-opacity:1;fill-rule:evenodd;stroke:none" /><path
         d="m 79.062,18.908 c 0.473,0 0.86,-0.387 0.86,-0.859 0,-0.477 -0.387,-0.86 -0.86,-0.86 -0.476,0 -0.859,0.383 -0.859,0.86 0,0.472 0.383,0.859 0.859,0.859"
         id="path3148"
         style="fill:#231f20;fill-opacity:1;fill-rule:evenodd;stroke:none" /><path
         d="m 72.254,18.908 c 0.476,0 0.859,-0.387 0.859,-0.859 0,-0.477 -0.383,-0.86 -0.859,-0.86 -0.473,0 -0.859,0.383 -0.859,0.86 0,0.472 0.386,0.859 0.859,0.859"
         id="path3150"
         style="fill:#231f20;fill-opacity:1;fill-rule:evenodd;stroke:none" /><path
         d="m 65.449,18.908 c 0.473,0 0.856,-0.387 0.856,-0.859 0,-0.477 -0.383,-0.86 -0.856,-0.86 -0.476,0 -0.859,0.383 -0.859,0.86 0,0.472 0.383,0.859 0.859,0.859"
         id="path3152"
         style="fill:#231f20;fill-opacity:1;fill-rule:evenodd;stroke:none" /><path
         d="m 58.641,18.908 c 0.472,0 0.859,-0.387 0.859,-0.859 0,-0.477 -0.387,-0.86 -0.859,-0.86 -0.477,0 -0.86,0.383 -0.86,0.86 0,0.472 0.383,0.859 0.86,0.859"
         id="path3154"
         style="fill:#231f20;fill-opacity:1;fill-rule:evenodd;stroke:none" /><path
         d="m 51.832,18.908 c 0.477,0 0.859,-0.387 0.859,-0.859 0,-0.477 -0.382,-0.86 -0.859,-0.86 -0.473,0 -0.855,0.383 -0.855,0.86 0,0.472 0.382,0.859 0.855,0.859"
         id="path3156"
         style="fill:#231f20;fill-opacity:1;fill-rule:evenodd;stroke:none" /><path
         d="m 45.027,18.908 c 0.473,0 0.86,-0.387 0.86,-0.859 0,-0.477 -0.387,-0.86 -0.86,-0.86 -0.476,0 -0.859,0.383 -0.859,0.86 0,0.472 0.383,0.859 0.859,0.859"
         id="path3158"
         style="fill:#231f20;fill-opacity:1;fill-rule:evenodd;stroke:none" /><path
         d="m 38.219,18.908 c 0.476,0 0.859,-0.387 0.859,-0.859 0,-0.477 -0.383,-0.86 -0.859,-0.86 -0.477,0 -0.86,0.383 -0.86,0.86 0,0.472 0.383,0.859 0.86,0.859"
         id="path3160"
         style="fill:#231f20;fill-opacity:1;fill-rule:evenodd;stroke:none" /><path
         d="m 31.41,18.908 c 0.477,0 0.86,-0.387 0.86,-0.859 0,-0.477 -0.383,-0.86 -0.86,-0.86 -0.472,0 -0.859,0.383 -0.859,0.86 0,0.472 0.387,0.859 0.859,0.859"
         id="path3162"
         style="fill:#231f20;fill-opacity:1;fill-rule:evenodd;stroke:none" /><path
         d="m 24.605,18.908 c 0.473,0 0.856,-0.387 0.856,-0.859 0,-0.477 -0.383,-0.86 -0.856,-0.86 -0.476,0 -0.859,0.383 -0.859,0.86 0,0.472 0.383,0.859 0.859,0.859"
         id="path3164"
         style="fill:#231f20;fill-opacity:1;fill-rule:evenodd;stroke:none" /><path
         d="m 17.797,18.908 c 0.476,0 0.859,-0.387 0.859,-0.859 0,-0.477 -0.383,-0.86 -0.859,-0.86 -0.473,0 -0.859,0.383 -0.859,0.86 0,0.472 0.386,0.859 0.859,0.859"
         id="path3166"
         style="fill:#231f20;fill-opacity:1;fill-rule:evenodd;stroke:none" /><path
         d="m 10.992,18.908 c 0.473,0 0.86,-0.387 0.86,-0.859 0,-0.477 -0.387,-0.86 -0.86,-0.86 -0.476,0 -0.859,0.383 -0.859,0.86 0,0.472 0.383,0.859 0.859,0.859"
         id="path3168"
         style="fill:#231f20;fill-opacity:1;fill-rule:evenodd;stroke:none" /><path
         d="m 4.184,18.908 c 0.476,0 0.859,-0.387 0.859,-0.859 0,-0.477 -0.383,-0.86 -0.859,-0.86 -0.473,0 -0.856,0.383 -0.856,0.86 0,0.472 0.383,0.859 0.856,0.859"
         id="path3170"
         style="fill:#231f20;fill-opacity:1;fill-rule:evenodd;stroke:none" /><path
         d="m 187.973,23.693 c 0.742,0 1.347,-0.605 1.347,-1.347 0,-0.75 -0.605,-1.352 -1.347,-1.352 -0.746,0 -1.348,0.602 -1.348,1.352 0,0.742 0.602,1.347 1.348,1.347"
         id="path3172"
         style="fill:#231f20;fill-opacity:1;fill-rule:evenodd;stroke:none" /><path
         d="m 181.164,23.693 c 0.746,0 1.352,-0.605 1.352,-1.347 0,-0.75 -0.606,-1.352 -1.352,-1.352 -0.746,0 -1.348,0.602 -1.348,1.352 0,0.742 0.602,1.347 1.348,1.347"
         id="path3174"
         style="fill:#231f20;fill-opacity:1;fill-rule:evenodd;stroke:none" /><path
         d="m 167.551,23.693 c 0.746,0 1.351,-0.605 1.351,-1.347 0,-0.75 -0.605,-1.352 -1.351,-1.352 -0.746,0 -1.348,0.602 -1.348,1.352 0,0.742 0.602,1.347 1.348,1.347"
         id="path3176"
         style="fill:#231f20;fill-opacity:1;fill-rule:evenodd;stroke:none" /><path
         d="m 147.129,23.693 c 0.746,0 1.351,-0.605 1.351,-1.347 0,-0.75 -0.605,-1.352 -1.351,-1.352 -0.742,0 -1.348,0.602 -1.348,1.352 0,0.742 0.606,1.347 1.348,1.347"
         id="path3178"
         style="fill:#231f20;fill-opacity:1;fill-rule:evenodd;stroke:none" /><path
         d="m 126.711,23.693 c 0.746,0 1.348,-0.605 1.348,-1.347 0,-0.75 -0.602,-1.352 -1.348,-1.352 -0.746,0 -1.352,0.602 -1.352,1.352 0,0.742 0.606,1.347 1.352,1.347"
         id="path3180"
         style="fill:#231f20;fill-opacity:1;fill-rule:evenodd;stroke:none" /><path
         d="m 119.902,23.693 c 0.746,0 1.352,-0.605 1.352,-1.347 0,-0.75 -0.606,-1.352 -1.352,-1.352 -0.746,0 -1.347,0.602 -1.347,1.352 0,0.742 0.601,1.347 1.347,1.347"
         id="path3182"
         style="fill:#231f20;fill-opacity:1;fill-rule:evenodd;stroke:none" /><path
         d="m 106.289,23.693 c 0.742,0 1.352,-0.605 1.352,-1.347 0,-0.75 -0.61,-1.352 -1.352,-1.352 -0.746,0 -1.348,0.602 -1.348,1.352 0,0.742 0.602,1.347 1.348,1.347"
         id="path3184"
         style="fill:#231f20;fill-opacity:1;fill-rule:evenodd;stroke:none" /><path
         d="m 72.254,23.693 c 0.746,0 1.348,-0.605 1.348,-1.347 0,-0.75 -0.602,-1.352 -1.348,-1.352 -0.746,0 -1.352,0.602 -1.352,1.352 0,0.742 0.606,1.347 1.352,1.347"
         id="path3186"
         style="fill:#231f20;fill-opacity:1;fill-rule:evenodd;stroke:none" /><path
         d="m 65.449,23.693 c 0.742,0 1.348,-0.605 1.348,-1.347 0,-0.75 -0.606,-1.352 -1.348,-1.352 -0.746,0 -1.351,0.602 -1.351,1.352 0,0.742 0.605,1.347 1.351,1.347"
         id="path3188"
         style="fill:#231f20;fill-opacity:1;fill-rule:evenodd;stroke:none" /><path
         d="m 58.641,23.693 c 0.746,0 1.347,-0.605 1.347,-1.347 0,-0.75 -0.601,-1.352 -1.347,-1.352 -0.746,0 -1.352,0.602 -1.352,1.352 0,0.742 0.606,1.347 1.352,1.347"
         id="path3190"
         style="fill:#231f20;fill-opacity:1;fill-rule:evenodd;stroke:none" /><path
         d="m 45.027,23.693 c 0.746,0 1.348,-0.605 1.348,-1.347 0,-0.75 -0.602,-1.352 -1.348,-1.352 -0.746,0 -1.351,0.602 -1.351,1.352 0,0.742 0.605,1.347 1.351,1.347"
         id="path3192"
         style="fill:#231f20;fill-opacity:1;fill-rule:evenodd;stroke:none" /><path
         d="m 31.41,23.693 c 0.746,0 1.352,-0.605 1.352,-1.347 0,-0.75 -0.606,-1.352 -1.352,-1.352 -0.746,0 -1.348,0.602 -1.348,1.352 0,0.742 0.602,1.347 1.348,1.347"
         id="path3194"
         style="fill:#231f20;fill-opacity:1;fill-rule:evenodd;stroke:none" /><path
         d="m 24.605,23.693 c 0.747,0 1.352,-0.605 1.352,-1.347 0,-0.75 -0.605,-1.352 -1.352,-1.352 -0.746,0 -1.351,0.602 -1.351,1.352 0,0.742 0.605,1.347 1.351,1.347"
         id="path3196"
         style="fill:#231f20;fill-opacity:1;fill-rule:evenodd;stroke:none" /><path
         d="m 4.184,23.693 c 0.746,0 1.351,-0.605 1.351,-1.347 0,-0.75 -0.605,-1.352 -1.351,-1.352 -0.746,0 -1.348,0.602 -1.348,1.352 0,0.742 0.602,1.347 1.348,1.347"
         id="path3198"
         style="fill:#231f20;fill-opacity:1;fill-rule:evenodd;stroke:none" /><path
         d="m 201.586,28.478 c 0.746,0 1.352,-0.605 1.352,-1.351 0,-0.742 -0.606,-1.348 -1.352,-1.348 -0.746,0 -1.352,0.606 -1.352,1.348 0,0.746 0.606,1.351 1.352,1.351"
         id="path3200"
         style="fill:#231f20;fill-opacity:1;fill-rule:evenodd;stroke:none" /><path
         d="m 194.777,28.478 c 0.746,0 1.352,-0.605 1.352,-1.351 0,-0.742 -0.606,-1.348 -1.352,-1.348 -0.746,0 -1.347,0.606 -1.347,1.348 0,0.746 0.601,1.351 1.347,1.351"
         id="path3202"
         style="fill:#231f20;fill-opacity:1;fill-rule:evenodd;stroke:none" /><path
         d="m 187.973,28.478 c 0.742,0 1.347,-0.605 1.347,-1.351 0,-0.742 -0.605,-1.348 -1.347,-1.348 -0.746,0 -1.348,0.606 -1.348,1.348 0,0.746 0.602,1.351 1.348,1.351"
         id="path3204"
         style="fill:#231f20;fill-opacity:1;fill-rule:evenodd;stroke:none" /><path
         d="m 133.52,28.478 c 0.742,0 1.347,-0.605 1.347,-1.351 0,-0.742 -0.605,-1.348 -1.347,-1.348 -0.75,0 -1.352,0.606 -1.352,1.348 0,0.746 0.602,1.351 1.352,1.351"
         id="path3206"
         style="fill:#231f20;fill-opacity:1;fill-rule:evenodd;stroke:none" /><path
         d="m 106.289,28.478 c 0.742,0 1.352,-0.605 1.352,-1.351 0,-0.742 -0.61,-1.348 -1.352,-1.348 -0.746,0 -1.348,0.606 -1.348,1.348 0,0.746 0.602,1.351 1.348,1.351"
         id="path3208"
         style="fill:#231f20;fill-opacity:1;fill-rule:evenodd;stroke:none" /><path
         d="m 85.867,28.478 c 0.746,0 1.352,-0.605 1.352,-1.351 0,-0.742 -0.606,-1.348 -1.352,-1.348 -0.746,0 -1.351,0.606 -1.351,1.348 0,0.746 0.605,1.351 1.351,1.351"
         id="path3210"
         style="fill:#231f20;fill-opacity:1;fill-rule:evenodd;stroke:none" /><path
         d="m 72.254,28.478 c 0.746,0 1.348,-0.605 1.348,-1.351 0,-0.742 -0.602,-1.348 -1.348,-1.348 -0.746,0 -1.352,0.606 -1.352,1.348 0,0.746 0.606,1.351 1.352,1.351"
         id="path3212"
         style="fill:#231f20;fill-opacity:1;fill-rule:evenodd;stroke:none" /><path
         d="m 10.992,28.478 c 0.746,0 1.348,-0.605 1.348,-1.351 0,-0.742 -0.602,-1.348 -1.348,-1.348 -0.746,0 -1.351,0.606 -1.351,1.348 0,0.746 0.605,1.351 1.351,1.351"
         id="path3214"
         style="fill:#231f20;fill-opacity:1;fill-rule:evenodd;stroke:none" /><path
         d="m 4.184,28.478 c 0.746,0 1.351,-0.605 1.351,-1.351 0,-0.742 -0.605,-1.348 -1.351,-1.348 -0.746,0 -1.348,0.606 -1.348,1.348 0,0.746 0.602,1.351 1.348,1.351"
         id="path3216"
         style="fill:#231f20;fill-opacity:1;fill-rule:evenodd;stroke:none" /></g></g></svg>